<svg width="346" height="167" viewBox="0 0 346 167" fill="none" xmlns="http://www.w3.org/2000/svg">
<path d="M0.782799 162.289L14.5625 163.273" stroke="#C3CAD9" stroke-miterlimit="10"/>
<path d="M1.60611 153.56L15.3203 155.246" stroke="#C3CAD9" stroke-miterlimit="10"/>
<path d="M2.87766 144.884L16.4805 147.26" stroke="#C3CAD9" stroke-miterlimit="10"/>
<path d="M4.57468 136.281L18.043 139.357" stroke="#C3CAD9" stroke-miterlimit="10"/>
<path d="M6.71994 127.787L20.0195 131.529" stroke="#C3CAD9" stroke-miterlimit="10"/>
<path d="M9.29045 119.402L22.3867 123.82" stroke="#C3CAD9" stroke-miterlimit="10"/>
<path d="M12.2934 111.159L25.1289 116.242" stroke="#C3CAD9" stroke-miterlimit="10"/>
<path d="M15.7025 103.082L28.2773 108.818" stroke="#C3CAD9" stroke-miterlimit="10"/>
<path d="M19.5204 95.1924L31.7773 101.559" stroke="#C3CAD9" stroke-miterlimit="10"/>
<path d="M23.7401 87.5043L35.6562 94.4883" stroke="#C3CAD9" stroke-miterlimit="10"/>
<path d="M28.3381 80.0387L39.8906 87.6172" stroke="#C3CAD9" stroke-miterlimit="10"/>
<path d="M33.3102 72.8194L44.4648 80.9805" stroke="#C3CAD9" stroke-miterlimit="10"/>
<path d="M38.6486 65.8694L49.3711 74.5781" stroke="#C3CAD9" stroke-miterlimit="10"/>
<path d="M44.3417 59.1891L54.5977 68.4336" stroke="#C3CAD9" stroke-miterlimit="10"/>
<path d="M50.3546 52.8093L60.1328 62.5664" stroke="#C3CAD9" stroke-miterlimit="10"/>
<path d="M56.687 46.7459L65.9531 56.9922" stroke="#C3CAD9" stroke-miterlimit="10"/>
<path d="M63.3232 41.02L72.0547 51.7207" stroke="#C3CAD9" stroke-miterlimit="10"/>
<path d="M70.2439 35.6298L78.418 46.7617" stroke="#C3CAD9" stroke-miterlimit="10"/>
<path d="M92.5176 21.6764L98.9062 33.9277" stroke="#C3CAD9" stroke-miterlimit="10"/>
<path d="M100.389 17.8044L106.141 30.3593" stroke="#C3CAD9" stroke-miterlimit="10"/>
<path d="M108.439 14.3384L113.543 27.1738" stroke="#C3CAD9" stroke-miterlimit="10"/>
<path d="M116.66 11.2781L121.105 24.3594" stroke="#C3CAD9" stroke-miterlimit="10"/>
<path d="M125.021 8.65462L128.797 21.9355" stroke="#C3CAD9" stroke-miterlimit="10"/>
<path d="M133.507 6.44885L136.602 19.9062" stroke="#C3CAD9" stroke-miterlimit="10"/>
<path d="M142.094 4.6801L144.496 18.2793" stroke="#C3CAD9" stroke-miterlimit="10"/>
<path d="M150.766 3.35219L152.465 17.0586" stroke="#C3CAD9" stroke-miterlimit="10"/>
<path d="M159.489 2.47082L160.496 16.25" stroke="#C3CAD9" stroke-miterlimit="10"/>
<path d="M168.242 2.02824L168.547 15.834" stroke="#C3CAD9" stroke-miterlimit="10"/>
<path d="M177.015 2.03556L176.606 15.8448" stroke="#C3CAD9" stroke-miterlimit="10"/>
<path d="M185.769 2.49199L184.658 16.2587" stroke="#C3CAD9" stroke-miterlimit="10"/>
<path d="M194.487 3.39696L192.686 17.0868" stroke="#C3CAD9" stroke-miterlimit="10"/>
<path d="M203.15 4.7371L200.66 18.3271" stroke="#C3CAD9" stroke-miterlimit="10"/>
<path d="M211.742 6.51584L208.551 19.9598" stroke="#C3CAD9" stroke-miterlimit="10"/>
<path d="M220.22 8.74099L216.353 21.9931" stroke="#C3CAD9" stroke-miterlimit="10"/>
<path d="M228.585 11.3781L224.041 24.4269" stroke="#C3CAD9" stroke-miterlimit="10"/>
<path d="M236.794 14.4538L231.596 27.2535" stroke="#C3CAD9" stroke-miterlimit="10"/>
<path d="M244.845 17.939L238.994 30.455" stroke="#C3CAD9" stroke-miterlimit="10"/>
<path d="M252.697 21.8279L246.228 34.0261" stroke="#C3CAD9" stroke-miterlimit="10"/>
<path d="M260.35 26.1051L253.263 37.9625" stroke="#C3CAD9" stroke-miterlimit="10"/>
<path d="M281.856 41.2201L273.044 51.8608" stroke="#C3CAD9" stroke-miterlimit="10"/>
<path d="M288.479 46.9578L279.144 57.1322" stroke="#C3CAD9" stroke-miterlimit="10"/>
<path d="M294.798 53.0389L284.962 62.7241" stroke="#C3CAD9" stroke-miterlimit="10"/>
<path d="M300.804 59.4262L290.478 68.5994" stroke="#C3CAD9" stroke-miterlimit="10"/>
<path d="M306.486 66.11L295.705 74.7485" stroke="#C3CAD9" stroke-miterlimit="10"/>
<path d="M311.807 73.0763L300.608 81.146" stroke="#C3CAD9" stroke-miterlimit="10"/>
<path d="M316.766 80.3042L305.17 87.7938" stroke="#C3CAD9" stroke-miterlimit="10"/>
<path d="M321.357 87.7701L309.387 94.6684" stroke="#C3CAD9" stroke-miterlimit="10"/>
<path d="M325.565 95.4717L313.257 101.745" stroke="#C3CAD9" stroke-miterlimit="10"/>
<path d="M329.366 103.367L316.755 109.015" stroke="#C3CAD9" stroke-miterlimit="10"/>
<path d="M332.761 111.45L319.881 116.439" stroke="#C3CAD9" stroke-miterlimit="10"/>
<path d="M335.742 119.704L322.627 124.022" stroke="#C3CAD9" stroke-miterlimit="10"/>
<path d="M338.305 128.09L324.979 131.739" stroke="#C3CAD9" stroke-miterlimit="10"/>
<path d="M340.434 136.586L326.943 139.565" stroke="#C3CAD9" stroke-miterlimit="10"/>
<path d="M342.117 145.193L328.496 147.479" stroke="#C3CAD9" stroke-miterlimit="10"/>
<path d="M343.367 153.875L329.651 155.459" stroke="#C3CAD9" stroke-miterlimit="10"/>
<path d="M344.18 162.599L330.39 163.491" stroke="#C3CAD9" stroke-miterlimit="10"/>
</svg>
