<svg width="20" height="20" viewBox="0 0 20 20" fill="none" xmlns="http://www.w3.org/2000/svg">
<rect x="4.1665" y="2.5" width="6.66667" height="3.33333" rx="1" stroke="#555555" stroke-width="1.5" stroke-linecap="round" stroke-linejoin="round"/>
<path d="M10.8332 4.1665H12.0832C12.7735 4.1665 13.3332 4.72615 13.3332 5.4165V16.2498C13.3332 16.9402 12.7735 17.4998 12.0832 17.4998H2.9165C2.22615 17.4998 1.6665 16.9402 1.6665 16.2498V5.4165C1.6665 4.72615 2.22615 4.1665 2.9165 4.1665H4.1665" stroke="#555555" stroke-width="1.5" stroke-linecap="round" stroke-linejoin="round"/>
<path fillRule="evenodd" clip-rule="evenodd" d="M18.3335 15.1217V4.5835C18.3335 3.89314 17.7739 3.3335 17.0835 3.3335V3.3335C16.3931 3.3335 15.8335 3.89314 15.8335 4.5835V15.1217C15.8335 15.3805 15.8937 15.6357 16.0095 15.8671L16.7108 17.2698C16.7814 17.411 16.9257 17.5002 17.0835 17.5002C17.2413 17.5002 17.3856 17.411 17.4562 17.2698L18.1575 15.8671C18.2733 15.6357 18.3335 15.3805 18.3335 15.1217Z" stroke="#555555" stroke-width="1.5" stroke-linecap="round" stroke-linejoin="round"/>
<path d="M8.75 13.7502H10.8333" stroke="#555555" stroke-width="1.5" stroke-linecap="round" stroke-linejoin="round"/>
<path d="M4.5835 13.546L5.13665 14.043L6.25016 13.043" stroke="#555555" stroke-width="1.5" stroke-linecap="round" stroke-linejoin="round"/>
<path d="M8.75 10.4167H10.8333" stroke="#555555" stroke-width="1.5" stroke-linecap="round" stroke-linejoin="round"/>
<path d="M4.5835 10.213L5.13665 10.71L6.25016 9.70996" stroke="#555555" stroke-width="1.5" stroke-linecap="round" stroke-linejoin="round"/>
</svg>
