<svg width="24" height="25" viewBox="0 0 24 25" fill="none" xmlns="http://www.w3.org/2000/svg">
<g clip-path="url(#clip0_166_1309)">
<path d="M21 6.233C19.34 6.233 18 7.573 18 9.233V13.233C18 13.783 17.55 14.233 17 14.233V10.233C17 8.573 15.66 7.233 14 7.233H10C8.34 7.233 7 8.573 7 10.233H9C9 9.683 9.45 9.233 10 9.233H14C14.55 9.233 15 9.683 15 10.233V11.233H6C3.79 11.233 2 13.023 2 15.233V18.233H17V16.233C18.66 16.233 20 14.893 20 13.233V9.233C20 8.683 20.45 8.233 21 8.233H22V6.233H21ZM15 16.233H4V15.233C4 14.133 4.9 13.233 6 13.233H15V16.233Z" fill="#333333"/>
</g>
<defs>
<clipPath id="clip0_166_1309">
<rect width="24" height="24" fill="white" transform="translate(0 0.233002)"/>
</clipPath>
</defs>
</svg>
