<svg width="60" height="46" viewBox="0 0 60 46" fill="none" xmlns="http://www.w3.org/2000/svg">
<path d="M54.8659 45.2735H5.13231C3.4065 45.2735 1.88249 44.437 1.05423 43.0359C0.225961 41.6348 0.286198 39.9953 1.21536 38.6499L26.0829 2.66698C26.9413 1.42479 28.4051 0.683105 29.9999 0.683105C31.5946 0.683105 33.0569 1.42479 33.9168 2.66698L58.7843 38.6513C59.7135 39.9967 59.7753 41.6362 58.9455 43.0373C58.1172 44.4384 56.5932 45.2749 54.8674 45.2749L54.8659 45.2735ZM29.9984 1.54748C28.7258 1.54748 27.5557 2.13999 26.8705 3.13262L2.00447 39.1183C1.26205 40.1932 1.21386 41.5023 1.87496 42.6218C2.53607 43.7413 3.75437 44.4091 5.13231 44.4091H54.8659C56.2438 44.4091 57.4606 43.7413 58.1232 42.6218C58.7843 41.5023 58.7362 40.1932 57.9937 39.1183L33.1262 3.13262C32.441 2.13999 31.2709 1.54748 29.9984 1.54748Z" fill="#C3CAD9"/>
<path d="M54.8652 43.5867H5.1316C4.08347 43.5867 3.15581 43.0778 2.65283 42.226C2.14985 41.3742 2.18599 40.3774 2.75072 39.5604L27.6183 3.57605C28.1408 2.82043 29.0308 2.37012 29.9992 2.37012C30.9675 2.37012 31.8575 2.82043 32.38 3.57605L57.2476 39.5604C57.8123 40.3787 57.85 41.3756 57.3455 42.226C56.8425 43.0778 55.9148 43.5853 54.8667 43.5853L54.8652 43.5867Z" fill="#FDB600"/>
<path d="M29.8656 32.8586C28.9876 32.8586 28.0027 32.319 27.9124 31.1312H27.9154C27.9124 31.1103 27.9109 31.0894 27.9109 31.0657L27.3221 14.078C27.301 13.4493 27.5449 12.8498 28.0088 12.3911C28.4741 11.9324 29.1036 11.6689 29.7828 11.648C30.4785 11.6243 31.1637 11.8753 31.6622 12.3367C32.1606 12.7982 32.4317 13.4325 32.4076 14.0794L31.8158 31.1298C31.7299 32.3162 30.7451 32.8572 29.8671 32.8586H29.8641H29.8656Z" fill="#AAAAAA"/>
<path d="M29.8688 38.6124C28.5044 38.6124 27.3945 37.5849 27.3945 36.3218C27.3945 35.0587 28.5044 34.0312 29.8688 34.0312C31.2332 34.0312 32.343 35.0587 32.343 36.3218C32.343 37.5849 31.2332 38.6124 29.8688 38.6124Z" fill="#AAAAAA"/>
</svg>
