<svg width="24" height="25" viewBox="0 0 24 25" fill="none" xmlns="http://www.w3.org/2000/svg">
<path d="M15 5.43291C16.7 7.13291 16.7 9.83291 15 11.4329C13.3 13.0329 10.6 13.1329 8.99999 11.4329C7.39999 9.73291 7.29999 7.03291 8.99999 5.43291C10.7 3.83291 13.3 3.83291 15 5.43291" stroke="#333333" stroke-width="1.5" stroke-linecap="round" stroke-linejoin="round"/>
<path d="M4 20.2329C4 17.7329 6 15.7329 8.5 15.7329H11.1" stroke="#333333" stroke-width="1.5" stroke-linecap="round" stroke-linejoin="round"/>
<path fill-rule="evenodd" clip-rule="evenodd" d="M14 21.2329H16.3L19.7 17.8329C20.1 17.4329 20.1 16.8329 19.7 16.4329L18.8 15.5329C18.4 15.1329 17.8 15.1329 17.4 15.5329L14 18.9329V21.2329V21.2329H14Z" stroke="#333333" stroke-width="1.5" stroke-linecap="round" stroke-linejoin="round"/>
</svg>
