<svg width="24" height="25" viewBox="0 0 24 25" fill="none" xmlns="http://www.w3.org/2000/svg">
<path d="M2 19.2329C2 17.0329 3.8 15.2329 6 15.2329H10C12.2 15.2329 14 17.0329 14 19.2329" stroke="#333333" stroke-width="1.5" stroke-linecap="round" stroke-linejoin="round"/>
<path d="M10.5002 6.23306C11.9002 7.63306 11.9002 9.83306 10.5002 11.1331C9.10017 12.4331 6.90017 12.5331 5.60017 11.1331C4.30017 9.73306 4.20017 7.63306 5.50017 6.23306C6.80017 4.83306 9.10017 4.93306 10.5002 6.23306" stroke="#333333" stroke-width="1.5" stroke-linecap="round" stroke-linejoin="round"/>
<path d="M16 14.2329H19C20.7 14.2329 22 15.5329 22 17.2329" stroke="#333333" stroke-width="1.5" stroke-linecap="round" stroke-linejoin="round"/>
<path d="M19.2999 6.9333C20.2999 7.9333 20.2999 9.5333 19.2999 10.4333C18.2999 11.3333 16.6999 11.4333 15.7999 10.4333C14.8999 9.4333 14.7999 7.8333 15.7999 6.9333C16.6999 6.0333 18.2999 6.0333 19.2999 6.9333" stroke="#333333" stroke-width="1.5" stroke-linecap="round" stroke-linejoin="round"/>
</svg>
