<svg width="24" height="25" viewBox="0 0 24 25" fill="none" xmlns="http://www.w3.org/2000/svg">
<path fill-rule="evenodd" clip-rule="evenodd" d="M8 10.2329H5C3.895 10.2329 3 9.33791 3 8.23291V5.23291C3 4.12791 3.895 3.23291 5 3.23291H8C9.105 3.23291 10 4.12791 10 5.23291V8.23291C10 9.33791 9.105 10.2329 8 10.2329Z" stroke="#333333" stroke-width="1.5" stroke-linecap="round" stroke-linejoin="round"/>
<path fill-rule="evenodd" clip-rule="evenodd" d="M19 10.2329H16C14.895 10.2329 14 9.33791 14 8.23291V5.23291C14 4.12791 14.895 3.23291 16 3.23291H19C20.105 3.23291 21 4.12791 21 5.23291V8.23291C21 9.33791 20.105 10.2329 19 10.2329Z" stroke="#333333" stroke-width="1.5" stroke-linecap="round" stroke-linejoin="round"/>
<path fill-rule="evenodd" clip-rule="evenodd" d="M8 21.2329H5C3.895 21.2329 3 20.3379 3 19.2329V16.2329C3 15.1279 3.895 14.2329 5 14.2329H8C9.105 14.2329 10 15.1279 10 16.2329V19.2329C10 20.3379 9.105 21.2329 8 21.2329Z" stroke="#333333" stroke-width="1.5" stroke-linecap="round" stroke-linejoin="round"/>
<path d="M20 15.7827H15" stroke="#333333" stroke-width="1.5" stroke-linecap="round" stroke-linejoin="round"/>
<path d="M15 19.6831H20" stroke="#333333" stroke-width="1.5" stroke-linecap="round" stroke-linejoin="round"/>
</svg>
