<svg width="24" height="25" viewBox="0 0 24 25" fill="none" xmlns="http://www.w3.org/2000/svg">
<g clip-path="url(#clip0_397_6146)">
<path d="M21 6.23291C19.34 6.23291 18 7.57291 18 9.23291V13.2329C18 13.7829 17.55 14.2329 17 14.2329V10.2329C17 8.57291 15.66 7.23291 14 7.23291H10C8.34 7.23291 7 8.57291 7 10.2329H9C9 9.68291 9.45 9.23291 10 9.23291H14C14.55 9.23291 15 9.68291 15 10.2329V11.2329H6C3.79 11.2329 2 13.0229 2 15.2329V18.2329H17V16.2329C18.66 16.2329 20 14.8929 20 13.2329V9.23291C20 8.68291 20.45 8.23291 21 8.23291H22V6.23291H21ZM15 16.2329H4V15.2329C4 14.1329 4.9 13.2329 6 13.2329H15V16.2329Z" fill="#333333"/>
</g>
<defs>
<clipPath id="clip0_397_6146">
<rect width="24" height="24" fill="white" transform="translate(0 0.23291)"/>
</clipPath>
</defs>
</svg>
