<svg width="24" height="25" viewBox="0 0 24 25" fill="none" xmlns="http://www.w3.org/2000/svg">
<path d="M12 6.23291V8.23291" stroke="#333333" stroke-width="1.5" stroke-linecap="round" stroke-linejoin="round"/>
<path d="M12 7.23291H6C4.89543 7.23291 4 8.12834 4 9.23291V9.23291C4 10.3375 4.89543 11.2329 6 11.2329H9.61051" stroke="#333333" stroke-width="1.5" stroke-linecap="round" stroke-linejoin="round"/>
<path d="M13.8809 15.2329H17.9999C19.1044 15.2329 19.9999 14.3375 19.9999 13.2329V13.2329C19.9999 12.1283 19.1044 11.2329 17.9999 11.2329H14.3893" stroke="#333333" stroke-width="1.5" stroke-linecap="round" stroke-linejoin="round"/>
<path d="M10.119 15.2329H7C5.89543 15.2329 5 16.1283 5 17.2329V17.2329C5 18.3375 5.89543 19.2329 7 19.2329H10.6275" stroke="#333333" stroke-width="1.5" stroke-linecap="round" stroke-linejoin="round"/>
<path d="M13.3726 19.2329H17" stroke="#333333" stroke-width="1.5" stroke-linecap="round" stroke-linejoin="round"/>
<path d="M14.8979 7.23291H19" stroke="#333333" stroke-width="1.5" stroke-linecap="round" stroke-linejoin="round"/>
<path fill-rule="evenodd" clip-rule="evenodd" d="M12.0001 3.23291V3.23291C12.8634 3.23466 13.6842 3.60742 14.2536 4.25627C14.823 4.90512 15.086 5.76743 14.9756 6.62359L13.1167 21.2463C13.0468 21.8098 12.5679 22.2329 12.0001 22.2329C11.4323 22.2329 10.9535 21.8098 10.8836 21.2463L9.0247 6.62359C8.9143 5.76743 9.17728 4.90512 9.74667 4.25627C10.3161 3.60742 11.1369 3.23466 12.0001 3.23291Z" stroke="#333333" stroke-width="1.5" stroke-linecap="round" stroke-linejoin="round"/>
</svg>
