<svg width="24" height="25" viewBox="0 0 24 25" fill="none" xmlns="http://www.w3.org/2000/svg">
<path fill-rule="evenodd" clip-rule="evenodd" d="M6.58579 12.2329H5C3.89543 12.2329 3 11.3375 3 10.2329V7.23291C3 6.12834 3.89543 5.23291 5 5.23291H19C20.1046 5.23291 21 6.12834 21 7.23291V19.2329C21 20.3375 20.1046 21.2329 19 21.2329H4C3.44772 21.2329 3 20.7852 3 20.2329V19.2329C3 18.6806 3.44772 18.2329 4 18.2329H11C11.5523 18.2329 12 17.7852 12 17.2329V11.2329C12 10.6806 11.5523 10.2329 11 10.2329H9.41421C9.149 10.2329 8.89465 10.3383 8.70711 10.5258L7.29289 11.94C7.10535 12.1276 6.851 12.2329 6.58579 12.2329Z" stroke="#333333" stroke-width="1.5" stroke-linecap="round" stroke-linejoin="round"/>
<circle cx="16.5" cy="9.73291" r="1.5" stroke="#333333" stroke-width="1.5" stroke-linecap="round" stroke-linejoin="round"/>
<path d="M5 12.2329V15.2329" stroke="#333333" stroke-width="1.5" stroke-linecap="round" stroke-linejoin="round"/>
<path d="M15 15.2329H18" stroke="#333333" stroke-width="1.5" stroke-linecap="round" stroke-linejoin="round"/>
<path d="M18 18.2329H15" stroke="#333333" stroke-width="1.5" stroke-linecap="round" stroke-linejoin="round"/>
<path d="M10 5.23291V3.23291" stroke="#333333" stroke-width="1.5" stroke-linecap="round" stroke-linejoin="round"/>
<path d="M14 5.23291V3.23291" stroke="#333333" stroke-width="1.5" stroke-linecap="round" stroke-linejoin="round"/>
</svg>
