<svg width="24" height="25" viewBox="0 0 24 25" fill="none" xmlns="http://www.w3.org/2000/svg">
<path fill-rule="evenodd" clip-rule="evenodd" d="M5 21.2329H18.779C19.884 21.2329 20.779 20.3379 20.779 19.2329V5.23291C20.779 4.12791 19.884 3.23291 18.779 3.23291H5C3.895 3.23291 3 4.12791 3 5.23291V19.2329C3 20.3379 3.895 21.2329 5 21.2329Z" stroke="#333333" stroke-width="1.5" stroke-linecap="round" stroke-linejoin="round"/>
<path d="M20.78 8.23291H3" stroke="#333333" stroke-width="1.5" stroke-linecap="round" stroke-linejoin="round"/>
<path d="M8.5358 16.7329V16.7329C8.0348 15.8649 8.2898 14.7579 9.1198 14.1969L9.1208 14.1959C9.7868 13.7449 10.6638 13.7599 11.3138 14.2329L12.6858 15.2319C13.3358 15.7049 14.2128 15.7199 14.8788 15.2689L14.8798 15.2679C15.7098 14.7069 15.9638 13.5999 15.4638 12.7319V12.7319" stroke="#333333" stroke-width="1.5" stroke-linecap="round" stroke-linejoin="round"/>
<path d="M14.8284 11.9045C16.3905 13.4666 16.3905 15.9992 14.8284 17.5613C13.2663 19.1234 10.7337 19.1234 9.17157 17.5613C7.60947 15.9992 7.60947 13.4666 9.17157 11.9045C10.7337 10.3424 13.2663 10.3424 14.8284 11.9045" stroke="#333333" stroke-width="1.5" stroke-linecap="round" stroke-linejoin="round"/>
<path d="M16 5.73291H18" stroke="#333333" stroke-width="1.5" stroke-linecap="round" stroke-linejoin="round"/>
</svg>
