<svg width="24" height="25" viewBox="0 0 24 25" fill="none" xmlns="http://www.w3.org/2000/svg">
<path d="M12.0002 3.22949V8.23158" stroke="#333333" stroke-width="1.5" stroke-linecap="round" stroke-linejoin="round"/>
<path d="M21.0041 17.2352V10.2323C21.0041 9.12725 20.1083 8.23145 19.0032 8.23145H4.99742C3.89239 8.23145 2.99658 9.12725 2.99658 10.2323V17.2352" stroke="#333333" stroke-width="1.5" stroke-linecap="round" stroke-linejoin="round"/>
<rect x="6.99805" y="14.2339" width="5.00208" height="3.00125" stroke="#333333" stroke-width="1.5" stroke-linecap="round" stroke-linejoin="round"/>
<path fill-rule="evenodd" clip-rule="evenodd" d="M19.0033 21.237H5.24752C4.00436 21.237 2.99658 20.2292 2.99658 18.9861V8.73178C2.99627 8.19147 3.10587 7.65675 3.31872 7.16013L4.41317 4.59606C4.76708 3.76703 5.58163 3.22926 6.48304 3.22949H17.5166C18.418 3.22926 19.2326 3.76703 19.5865 4.59606L20.687 7.16013C20.898 7.65715 21.0058 8.19183 21.0041 8.73178V19.2362C21.0041 20.3412 20.1083 21.237 19.0033 21.237Z" stroke="#333333" stroke-width="1.5" stroke-linecap="round" stroke-linejoin="round"/>
</svg>
