<svg width="24" height="25" viewBox="0 0 24 25" fill="none" xmlns="http://www.w3.org/2000/svg">
<path d="M12.0002 3.22925V8.23133" stroke="#3E2DE1" stroke-width="1.5" stroke-linecap="round" stroke-linejoin="round"/>
<path d="M21.0038 17.2351V10.2322C21.0038 9.12713 20.108 8.23132 19.003 8.23132H4.99717C3.89214 8.23132 2.99634 9.12713 2.99634 10.2322V17.2351" stroke="#3E2DE1" stroke-width="1.5" stroke-linecap="round" stroke-linejoin="round"/>
<rect x="6.99805" y="14.2338" width="5.00208" height="3.00125" stroke="#3E2DE1" stroke-width="1.5" stroke-linecap="round" stroke-linejoin="round"/>
<path fill-rule="evenodd" clip-rule="evenodd" d="M19.003 21.2367H5.24728C4.00412 21.2367 2.99634 20.229 2.99634 18.9858V8.73154C2.99602 8.19123 3.10562 7.6565 3.31847 7.15989L4.41293 4.59582C4.76684 3.76679 5.58138 3.22901 6.48279 3.22925H17.5164C18.4178 3.22901 19.2323 3.76679 19.5862 4.59582L20.6867 7.15989C20.8977 7.6569 21.0056 8.19159 21.0039 8.73154V19.2359C21.0039 20.3409 20.108 21.2367 19.003 21.2367Z" stroke="#3E2DE1" stroke-width="1.5" stroke-linecap="round" stroke-linejoin="round"/>
</svg>
