<svg width="24" height="25" viewBox="0 0 24 25" fill="none" xmlns="http://www.w3.org/2000/svg">
<circle cx="5.80103" cy="18.4319" r="2" stroke="#3E2DE1" stroke-width="1.5" stroke-linecap="round" stroke-linejoin="round"/>
<circle cx="18.199" cy="6.03406" r="2" stroke="#3E2DE1" stroke-width="1.5" stroke-linecap="round" stroke-linejoin="round"/>
<circle cx="5.80103" cy="6.03406" r="2" stroke="#3E2DE1" stroke-width="1.5" stroke-linecap="round" stroke-linejoin="round"/>
<path d="M4.38684 17.0177C2.53772 14.0959 2.53772 10.3701 4.38684 7.44827" stroke="#3E2DE1" stroke-width="1.5" stroke-linecap="round" stroke-linejoin="round"/>
<path d="M7.21533 4.61984C10.1372 2.77072 13.863 2.77072 16.7848 4.61984" stroke="#3E2DE1" stroke-width="1.5" stroke-linecap="round" stroke-linejoin="round"/>
<path fill-rule="evenodd" clip-rule="evenodd" d="M20.3117 16.3815L17.8055 17.435C17.5346 17.5489 17.319 17.7643 17.2051 18.0352L16.1494 20.5449C15.9648 20.9831 15.5245 21.2579 15.0498 21.2311C14.575 21.2044 14.1684 20.8818 14.0342 20.4256L12.0473 13.6758C11.931 13.2811 12.0398 12.8544 12.3307 12.5635C12.6217 12.2726 13.0484 12.1639 13.443 12.2802L20.1926 14.2665C20.6489 14.4005 20.9715 14.8072 20.9982 15.282C21.0249 15.7568 20.75 16.1971 20.3117 16.3815Z" stroke="#3E2DE1" stroke-width="1.5" stroke-linecap="round" stroke-linejoin="round"/>
</svg>
