<svg width="24" height="25" viewBox="0 0 24 25" fill="none" xmlns="http://www.w3.org/2000/svg">
<path d="M15 5.433C16.7 7.133 16.7 9.833 15 11.433C13.3 13.033 10.6 13.133 8.99999 11.433C7.39999 9.733 7.29999 7.033 8.99999 5.433C10.7 3.833 13.3 3.833 15 5.433" stroke="#3E2DE1" stroke-width="1.5" stroke-linecap="round" stroke-linejoin="round"/>
<path d="M4 20.233C4 17.733 6 15.733 8.5 15.733H11.1" stroke="#3E2DE1" stroke-width="1.5" stroke-linecap="round" stroke-linejoin="round"/>
<path fill-rule="evenodd" clip-rule="evenodd" d="M14 21.233H16.3L19.7 17.833C20.1 17.433 20.1 16.833 19.7 16.433L18.8 15.533C18.4 15.133 17.8 15.133 17.4 15.533L14 18.933V21.233V21.233H14Z" stroke="#3E2DE1" stroke-width="1.5" stroke-linecap="round" stroke-linejoin="round"/>
</svg>
