<svg width="24" height="25" viewBox="0 0 24 25" fill="none" xmlns="http://www.w3.org/2000/svg">
<path d="M2 19.233C2 17.033 3.8 15.233 6 15.233H10C12.2 15.233 14 17.033 14 19.233" stroke="#3E2DE1" stroke-width="1.5" stroke-linecap="round" stroke-linejoin="round"/>
<path d="M10.4999 6.233C11.8999 7.633 11.8999 9.833 10.4999 11.133C9.09993 12.433 6.89993 12.533 5.59993 11.133C4.29993 9.733 4.19993 7.633 5.49993 6.233C6.79993 4.833 9.09993 4.933 10.4999 6.233" stroke="#3E2DE1" stroke-width="1.5" stroke-linecap="round" stroke-linejoin="round"/>
<path d="M16 14.233H19C20.7 14.233 22 15.533 22 17.233" stroke="#3E2DE1" stroke-width="1.5" stroke-linecap="round" stroke-linejoin="round"/>
<path d="M19.2999 6.933C20.2999 7.933 20.2999 9.533 19.2999 10.433C18.2999 11.333 16.6999 11.433 15.7999 10.433C14.8999 9.433 14.7999 7.833 15.7999 6.933C16.6999 6.033 18.2999 6.033 19.2999 6.933" stroke="#3E2DE1" stroke-width="1.5" stroke-linecap="round" stroke-linejoin="round"/>
</svg>
