<svg width="24" height="25" viewBox="0 0 24 25" fill="none" xmlns="http://www.w3.org/2000/svg">
<path d="M21 21.233H18" stroke="#3E2DE1" stroke-width="1.5" stroke-linecap="round" stroke-linejoin="round"/>
<path d="M3 21.233H6" stroke="#3E2DE1" stroke-width="1.5" stroke-linecap="round" stroke-linejoin="round"/>
<path d="M18 21.233V12.233H6V21.233" stroke="#3E2DE1" stroke-width="1.5" stroke-linecap="round" stroke-linejoin="round"/>
<path d="M10 8.233H14" stroke="#3E2DE1" stroke-width="1.5" stroke-linecap="round" stroke-linejoin="round"/>
<path d="M21 21.233V8.23299C21 7.50699 20.606 6.83699 19.971 6.48499L12.971 2.59599C12.367 2.25999 11.632 2.25999 11.028 2.59599L4.028 6.48499C3.394 6.83699 3 7.50699 3 8.23299V21.233" stroke="#3E2DE1" stroke-width="1.5" stroke-linecap="round" stroke-linejoin="round"/>
<path fill-rule="evenodd" clip-rule="evenodd" d="M14.333 21.233H12.666C12.298 21.233 12 20.935 12 20.566V18.899C12 18.531 12.298 18.233 12.667 18.233H14.334C14.702 18.233 15 18.531 15 18.9V20.567C15 20.935 14.702 21.233 14.333 21.233Z" stroke="#3E2DE1" stroke-width="1.5" stroke-linecap="round" stroke-linejoin="round"/>
<path fill-rule="evenodd" clip-rule="evenodd" d="M11.333 21.233H9.667C9.298 21.233 9 20.935 9 20.566V18.899C9 18.531 9.298 18.233 9.667 18.233H11.334C11.702 18.233 12 18.531 12 18.9V20.567C12 20.935 11.702 21.233 11.333 21.233Z" stroke="#3E2DE1" stroke-width="1.5" stroke-linecap="round" stroke-linejoin="round"/>
<path fill-rule="evenodd" clip-rule="evenodd" d="M12.833 18.233H11.166C10.798 18.233 10.499 17.935 10.499 17.566V15.899C10.499 15.531 10.797 15.232 11.166 15.232H12.833C13.201 15.232 13.5 15.53 13.5 15.899V17.566C13.5 17.935 13.202 18.233 12.833 18.233Z" stroke="#3E2DE1" stroke-width="1.5" stroke-linecap="round" stroke-linejoin="round"/>
</svg>
