<svg width="24" height="25" viewBox="0 0 24 25" fill="none" xmlns="http://www.w3.org/2000/svg">
<path fill-rule="evenodd" clip-rule="evenodd" d="M5 21.233H18.779C19.884 21.233 20.779 20.338 20.779 19.233V5.233C20.779 4.128 19.884 3.233 18.779 3.233H5C3.895 3.233 3 4.128 3 5.233V19.233C3 20.338 3.895 21.233 5 21.233Z" stroke="#3E2DE1" stroke-width="1.5" stroke-linecap="round" stroke-linejoin="round"/>
<path d="M20.78 8.233H3" stroke="#3E2DE1" stroke-width="1.5" stroke-linecap="round" stroke-linejoin="round"/>
<path d="M8.53605 16.733V16.733C8.03505 15.865 8.29005 14.758 9.12005 14.197L9.12105 14.196C9.78705 13.745 10.664 13.76 11.314 14.233L12.686 15.232C13.336 15.705 14.213 15.72 14.879 15.269L14.88 15.268C15.71 14.707 15.964 13.6 15.464 12.732V12.732" stroke="#3E2DE1" stroke-width="1.5" stroke-linecap="round" stroke-linejoin="round"/>
<path d="M14.8284 11.9046C16.3905 13.4667 16.3905 15.9994 14.8284 17.5614C13.2663 19.1235 10.7337 19.1235 9.17157 17.5614C7.60947 15.9993 7.60947 13.4667 9.17157 11.9046C10.7337 10.3425 13.2663 10.3425 14.8284 11.9046" stroke="#3E2DE1" stroke-width="1.5" stroke-linecap="round" stroke-linejoin="round"/>
<path d="M16 5.733H18" stroke="#3E2DE1" stroke-width="1.5" stroke-linecap="round" stroke-linejoin="round"/>
</svg>
