<svg width="24" height="25" viewBox="0 0 24 25" fill="none" xmlns="http://www.w3.org/2000/svg">
<path fill-rule="evenodd" clip-rule="evenodd" d="M8 10.233H5C3.895 10.233 3 9.338 3 8.233V5.233C3 4.128 3.895 3.233 5 3.233H8C9.105 3.233 10 4.128 10 5.233V8.233C10 9.338 9.105 10.233 8 10.233Z" stroke="#3E2DE1" stroke-width="1.5" stroke-linecap="round" stroke-linejoin="round"/>
<path fill-rule="evenodd" clip-rule="evenodd" d="M19 10.233H16C14.895 10.233 14 9.338 14 8.233V5.233C14 4.128 14.895 3.233 16 3.233H19C20.105 3.233 21 4.128 21 5.233V8.233C21 9.338 20.105 10.233 19 10.233Z" stroke="#3E2DE1" stroke-width="1.5" stroke-linecap="round" stroke-linejoin="round"/>
<path fill-rule="evenodd" clip-rule="evenodd" d="M8 21.233H5C3.895 21.233 3 20.338 3 19.233V16.233C3 15.128 3.895 14.233 5 14.233H8C9.105 14.233 10 15.128 10 16.233V19.233C10 20.338 9.105 21.233 8 21.233Z" stroke="#3E2DE1" stroke-width="1.5" stroke-linecap="round" stroke-linejoin="round"/>
<path d="M20 15.783H15" stroke="#3E2DE1" stroke-width="1.5" stroke-linecap="round" stroke-linejoin="round"/>
<path d="M15 19.683H20" stroke="#3E2DE1" stroke-width="1.5" stroke-linecap="round" stroke-linejoin="round"/>
</svg>
