<svg width="24" height="25" viewBox="0 0 24 25" fill="none" xmlns="http://www.w3.org/2000/svg">
<path d="M12 6.233V8.233" stroke="#3E2DE1" stroke-width="1.5" stroke-linecap="round" stroke-linejoin="round"/>
<path d="M12 7.233H6C4.89543 7.233 4 8.12843 4 9.233V9.233C4 10.3376 4.89543 11.233 6 11.233H9.61051" stroke="#3E2DE1" stroke-width="1.5" stroke-linecap="round" stroke-linejoin="round"/>
<path d="M13.8811 15.233H18.0001C19.1047 15.233 20.0001 14.3376 20.0001 13.233V13.233C20.0001 12.1284 19.1047 11.233 18.0001 11.233H14.3896" stroke="#3E2DE1" stroke-width="1.5" stroke-linecap="round" stroke-linejoin="round"/>
<path d="M10.119 15.233H7C5.89543 15.233 5 16.1284 5 17.233V17.233C5 18.3376 5.89543 19.233 7 19.233H10.6275" stroke="#3E2DE1" stroke-width="1.5" stroke-linecap="round" stroke-linejoin="round"/>
<path d="M13.3726 19.233H17" stroke="#3E2DE1" stroke-width="1.5" stroke-linecap="round" stroke-linejoin="round"/>
<path d="M14.8979 7.233H19" stroke="#3E2DE1" stroke-width="1.5" stroke-linecap="round" stroke-linejoin="round"/>
<path fill-rule="evenodd" clip-rule="evenodd" d="M11.9999 3.233V3.233C12.8631 3.23475 13.684 3.60752 14.2534 4.25636C14.8228 4.90521 15.0857 5.76752 14.9753 6.62368L13.1165 21.2464C13.0465 21.8099 12.5677 22.233 11.9999 22.233C11.4321 22.233 10.9533 21.8099 10.8833 21.2464L9.02446 6.62368C8.91406 5.76752 9.17704 4.90521 9.74642 4.25636C10.3158 3.60752 11.1366 3.23475 11.9999 3.233Z" stroke="#3E2DE1" stroke-width="1.5" stroke-linecap="round" stroke-linejoin="round"/>
</svg>
