<svg width="24" height="25" viewBox="0 0 24 25" fill="none" xmlns="http://www.w3.org/2000/svg">
<path d="M17.5857 7.64715L14.3341 10.2022L7.175 4.83291C6.65571 4.44344 6.02411 4.23291 5.375 4.23291H3V4.87191C3 5.17876 3.14088 5.46863 3.38216 5.65821L11.7496 12.2329L3 19.1079V20.2329H5.375C6.02411 20.2329 6.65571 20.0224 7.175 19.6329L14.3341 14.2636L17.5857 16.8187" stroke="#3E2DE1" stroke-width="1.5" stroke-linecap="round" stroke-linejoin="round"/>
<circle cx="19" cy="18.2329" r="2" stroke="#3E2DE1" stroke-width="1.5" stroke-linecap="round" stroke-linejoin="round"/>
<circle cx="19" cy="6.23291" r="2" stroke="#3E2DE1" stroke-width="1.5" stroke-linecap="round" stroke-linejoin="round"/>
<path d="M17 12.2329H18" stroke="#3E2DE1" stroke-width="1.5" stroke-linecap="round" stroke-linejoin="round"/>
<path d="M21 12.2329H22" stroke="#3E2DE1" stroke-width="1.5" stroke-linecap="round" stroke-linejoin="round"/>
<path d="M7 12.2329H6" stroke="#3E2DE1" stroke-width="1.5" stroke-linecap="round" stroke-linejoin="round"/>
<path d="M3 12.2329H2" stroke="#3E2DE1" stroke-width="1.5" stroke-linecap="round" stroke-linejoin="round"/>
<path d="M17 12.2329H18" stroke="#3E2DE1" stroke-width="1.5" stroke-linecap="round" stroke-linejoin="round"/>
<path d="M21 12.2329H22" stroke="#3E2DE1" stroke-width="1.5" stroke-linecap="round" stroke-linejoin="round"/>
<path d="M7 12.2329H6" stroke="#3E2DE1" stroke-width="1.5" stroke-linecap="round" stroke-linejoin="round"/>
<path d="M3 12.2329H2" stroke="#3E2DE1" stroke-width="1.5" stroke-linecap="round" stroke-linejoin="round"/>
</svg>
