<svg width="24" height="24" viewBox="0 0 24 24" fill="none" xmlns="http://www.w3.org/2000/svg">
<path d="M9.50896 18.0025V18.5147C9.50896 19.1752 9.77147 19.8086 10.2387 20.2754C10.7059 20.7423 11.3395 21.0043 12 21.0038V21.0038C12.6606 21.004 13.2942 20.7418 13.7614 20.2748C14.2286 19.8078 14.491 19.1743 14.491 18.5137V18.0025" stroke="#333333" stroke-width="1.5" stroke-linecap="round" stroke-linejoin="round"/>
<path fillRule="evenodd" clip-rule="evenodd" d="M17.9495 18.0025C19.0838 18.0025 20.0033 17.083 20.0033 15.9486V15.9486C20.0029 15.3724 19.7741 14.8199 19.3671 14.412L18.0025 13.0484V8.99875C18.0025 5.68366 15.3151 2.99625 12 2.99625V2.99625C8.6849 2.99625 5.99749 5.68366 5.99749 8.99875V13.0484L4.63292 14.412C4.22591 14.8199 3.99712 15.3724 3.99666 15.9486V15.9486C3.99666 16.4934 4.21305 17.0158 4.59822 17.4009C4.98339 17.7861 5.5058 18.0025 6.05051 18.0025H17.9495Z" stroke="#333333" stroke-width="1.5" stroke-linecap="round" stroke-linejoin="round"/>
</svg>
